0
SECTION
2
HEADER
9
$INSUNITS
70
4
9
$ACADVER
1
AC1014
9
$HANDSEED
5
FFFF
0
ENDSEC
0
SECTION
2
TABLES
0
TABLE
2
VPORT
5
8
100
AcDbSymbolTable
0
ENDTAB
0
TABLE
2
LTYPE
5
5
100
AcDbSymbolTable
0
LTYPE
5
14
100
AcDbSymbolTableRecord
100
AcDbLinetypeTableRecord
2
BYBLOCK
70
0
0
LTYPE
5
15
100
AcDbSymbolTableRecord
100
AcDbLinetypeTableRecord
2
BYLAYER
70
0
0
ENDTAB
0
TABLE
2
LAYER
5
2
100
AcDbSymbolTable
70
2
0
LAYER
5
50
100
AcDbSymbolTableRecord
100
AcDbLayerTableRecord
2
0
70
0
6
CONTINUOUS
0
ENDTAB
0
TABLE
2
STYLE
5
3
100
AcDbSymbolTable
70
1
0
STYLE
5
11
100
AcDbSymbolTableRecord
100
AcDbTextStyleTableRecord
2
STANDARD
70
0
0
ENDTAB
0
TABLE
2
VIEW
5
6
100
AcDbSymbolTable
70
0
0
ENDTAB
0
TABLE
2
UCS
5
7
100
AcDbSymbolTable
70
0
0
ENDTAB
0
TABLE
2
APPID
5
9
100
AcDbSymbolTable
70
2
0
APPID
5
12
100
AcDbSymbolTableRecord
100
AcDbRegAppTableRecord
2
ACAD
70
0
0
ENDTAB
0
TABLE
2
DIMSTYLE
5
A
100
AcDbSymbolTable
70
1
0
ENDTAB
0
TABLE
2
BLOCK_RECORD
5
1
100
AcDbSymbolTable
70
1
0
BLOCK_RECORD
5
1F
100
AcDbSymbolTableRecord
100
AcDbBlockTableRecord
2
*MODEL_SPACE
0
BLOCK_RECORD
5
1B
100
AcDbSymbolTableRecord
100
AcDbBlockTableRecord
2
*PAPER_SPACE
0
ENDTAB
0
ENDSEC
0
SECTION
2
BLOCKS
0
BLOCK
5
20
100
AcDbEntity
100
AcDbBlockBegin
2
*MODEL_SPACE
0
ENDBLK
5
21
100
AcDbEntity
100
AcDbBlockEnd
0
BLOCK
5
1C
100
AcDbEntity
100
AcDbBlockBegin
2
*PAPER_SPACE
0
ENDBLK
5
1D
100
AcDbEntity
100
AcDbBlockEnd
0
ENDSEC
0
SECTION
2
ENTITIES
0
CIRCLE
5
100
100
AcDbEntity
8
0
100
AcDbCircle
10
31.499999999999861
20
-86.000000000000114
30
0
40
1.5000000000000036
210
0
220
0
230
1
0
CIRCLE
5
101
100
AcDbEntity
8
0
100
AcDbCircle
10
144.49999999999997
20
-86.000000000000142
30
0
40
1.5000000000000036
210
0
220
0
230
1
0
CIRCLE
5
102
100
AcDbEntity
8
0
100
AcDbCircle
10
31.499999999999861
20
-34.000000000000028
30
0
40
1.5000000000000036
210
0
220
0
230
1
0
CIRCLE
5
103
100
AcDbEntity
8
0
100
AcDbCircle
10
144.49999999999997
20
-34.000000000000043
30
0
40
1.5000000000000036
210
0
220
0
230
1
0
CIRCLE
5
104
100
AcDbEntity
8
0
100
AcDbCircle
10
33.859999999999957
20
-48.810000000000066
30
0
40
0.66000000000000281
210
0
220
0
230
1
0
CIRCLE
5
105
100
AcDbEntity
8
0
100
AcDbCircle
10
139.39999999999998
20
-64.460000000000065
30
0
40
0.66000000000000725
210
0
220
0
230
1
0
CIRCLE
5
106
100
AcDbEntity
8
0
100
AcDbCircle
10
62.499999999999915
20
-32.900000000000027
30
0
40
0.65999999999999837
210
0
220
0
230
1
0
CIRCLE
5
107
100
AcDbEntity
8
0
100
AcDbCircle
10
70.499999999999901
20
-32.900000000000027
30
0
40
0.65999999999999837
210
0
220
0
230
1
0
CIRCLE
5
108
100
AcDbEntity
8
0
100
AcDbCircle
10
78.499999999999915
20
-32.900000000000027
30
0
40
0.65999999999999837
210
0
220
0
230
1
0
CIRCLE
5
109
100
AcDbEntity
8
0
100
AcDbCircle
10
94.499999999999915
20
-32.900000000000034
30
0
40
0.66000000000000725
210
0
220
0
230
1
0
CIRCLE
5
110
100
AcDbEntity
8
0
100
AcDbCircle
10
106.49999999999994
20
-32.900000000000034
30
0
40
0.66000000000000725
210
0
220
0
230
1
0
CIRCLE
5
111
100
AcDbEntity
8
0
100
AcDbCircle
10
118.49999999999994
20
-32.900000000000034
30
0
40
0.66000000000000725
210
0
220
0
230
1
0
CIRCLE
5
112
100
AcDbEntity
8
0
100
AcDbCircle
10
126.49999999999994
20
-32.900000000000034
30
0
40
0.66000000000000725
210
0
220
0
230
1
0
CIRCLE
5
113
100
AcDbEntity
8
0
100
AcDbCircle
10
144.15999999999997
20
-41.960000000000051
30
0
40
0.66000000000000725
210
0
220
0
230
1
0
CIRCLE
5
114
100
AcDbEntity
8
0
100
AcDbCircle
10
144.15999999999997
20
-44.500000000000064
30
0
40
0.66000000000000725
210
0
220
0
230
1
0
CIRCLE
5
115
100
AcDbEntity
8
0
100
AcDbCircle
10
144.15999999999997
20
-39.420000000000044
30
0
40
0.66000000000000725
210
0
220
0
230
1
0
CIRCLE
5
116
100
AcDbEntity
8
0
100
AcDbCircle
10
120.49999999999996
20
-32.900000000000034
30
0
40
0.65999999999998937
210
0
220
0
230
1
0
CIRCLE
5
117
100
AcDbEntity
8
0
100
AcDbCircle
10
112.49999999999994
20
-32.900000000000034
30
0
40
0.65999999999998937
210
0
220
0
230
1
0
CIRCLE
5
118
100
AcDbEntity
8
0
100
AcDbCircle
10
96.499999999999929
20
-32.900000000000034
30
0
40
0.66000000000000725
210
0
220
0
230
1
0
CIRCLE
5
119
100
AcDbEntity
8
0
100
AcDbCircle
10
80.499999999999901
20
-32.900000000000027
30
0
40
0.66000000000000725
210
0
220
0
230
1
0
CIRCLE
5
120
100
AcDbEntity
8
0
100
AcDbCircle
10
72.499999999999901
20
-32.900000000000027
30
0
40
0.65999999999999837
210
0
220
0
230
1
0
CIRCLE
5
121
100
AcDbEntity
8
0
100
AcDbCircle
10
64.499999999999901
20
-32.900000000000027
30
0
40
0.65999999999999837
210
0
220
0
230
1
0
CIRCLE
5
122
100
AcDbEntity
8
0
100
AcDbCircle
10
56.499999999999879
20
-32.900000000000027
30
0
40
0.65999999999999837
210
0
220
0
230
1
0
CIRCLE
5
123
100
AcDbEntity
8
0
100
AcDbCircle
10
68.499999999999915
20
-32.900000000000027
30
0
40
0.65999999999999837
210
0
220
0
230
1
0
CIRCLE
5
124
100
AcDbEntity
8
0
100
AcDbCircle
10
76.499999999999915
20
-32.900000000000027
30
0
40
0.65999999999999837
210
0
220
0
230
1
0
CIRCLE
5
125
100
AcDbEntity
8
0
100
AcDbCircle
10
88.499999999999929
20
-32.900000000000034
30
0
40
0.65999999999998937
210
0
220
0
230
1
0
CIRCLE
5
126
100
AcDbEntity
8
0
100
AcDbCircle
10
104.49999999999994
20
-32.900000000000034
30
0
40
0.66000000000000725
210
0
220
0
230
1
0
CIRCLE
5
127
100
AcDbEntity
8
0
100
AcDbCircle
10
116.49999999999994
20
-32.900000000000034
30
0
40
0.66000000000000725
210
0
220
0
230
1
0
CIRCLE
5
128
100
AcDbEntity
8
0
100
AcDbCircle
10
124.49999999999996
20
-32.900000000000034
30
0
40
0.65999999999998937
210
0
220
0
230
1
0
CIRCLE
5
129
100
AcDbEntity
8
0
100
AcDbCircle
10
146.69999999999999
20
-41.960000000000051
30
0
40
0.66000000000000725
210
0
220
0
230
1
0
CIRCLE
5
130
100
AcDbEntity
8
0
100
AcDbCircle
10
146.69999999999999
20
-44.500000000000064
30
0
40
0.65999999999998937
210
0
220
0
230
1
0
CIRCLE
5
131
100
AcDbEntity
8
0
100
AcDbCircle
10
146.69999999999999
20
-39.420000000000044
30
0
40
0.66000000000000725
210
0
220
0
230
1
0
CIRCLE
5
132
100
AcDbEntity
8
0
100
AcDbCircle
10
122.49999999999997
20
-32.900000000000034
30
0
40
0.65999999999998937
210
0
220
0
230
1
0
CIRCLE
5
133
100
AcDbEntity
8
0
100
AcDbCircle
10
114.49999999999994
20
-32.900000000000034
30
0
40
0.66000000000000725
210
0
220
0
230
1
0
CIRCLE
5
134
100
AcDbEntity
8
0
100
AcDbCircle
10
102.49999999999993
20
-32.900000000000034
30
0
40
0.65999999999998937
210
0
220
0
230
1
0
CIRCLE
5
135
100
AcDbEntity
8
0
100
AcDbCircle
10
86.499999999999915
20
-32.900000000000034
30
0
40
0.66000000000000725
210
0
220
0
230
1
0
CIRCLE
5
136
100
AcDbEntity
8
0
100
AcDbCircle
10
74.499999999999915
20
-32.900000000000027
30
0
40
0.65999999999999837
210
0
220
0
230
1
0
CIRCLE
5
137
100
AcDbEntity
8
0
100
AcDbCircle
10
66.499999999999901
20
-32.900000000000027
30
0
40
0.65999999999999837
210
0
220
0
230
1
0
CIRCLE
5
138
100
AcDbEntity
8
0
100
AcDbCircle
10
54.499999999999886
20
-32.900000000000027
30
0
40
0.65999999999999837
210
0
220
0
230
1
0
CIRCLE
5
139
100
AcDbEntity
8
0
100
AcDbCircle
10
122.19999999999993
20
-84.600000000000136
30
0
40
0.84999999999999076
210
0
220
0
230
1
0
CIRCLE
5
140
100
AcDbEntity
8
0
100
AcDbCircle
10
117.19999999999993
20
-84.600000000000136
30
0
40
0.84999999999999076
210
0
220
0
230
1
0
CIRCLE
5
141
100
AcDbEntity
8
0
100
AcDbCircle
10
112.19999999999993
20
-84.600000000000136
30
0
40
0.84999999999999076
210
0
220
0
230
1
0
CIRCLE
5
142
100
AcDbEntity
8
0
100
AcDbCircle
10
107.19999999999993
20
-84.600000000000136
30
0
40
0.84999999999999076
210
0
220
0
230
1
0
CIRCLE
5
143
100
AcDbEntity
8
0
100
AcDbCircle
10
102.19999999999993
20
-84.600000000000136
30
0
40
0.84999999999999076
210
0
220
0
230
1
0
CIRCLE
5
144
100
AcDbEntity
8
0
100
AcDbCircle
10
67.199999999999918
20
-84.600000000000136
30
0
40
0.85000000000000853
210
0
220
0
230
1
0
CIRCLE
5
145
100
AcDbEntity
8
0
100
AcDbCircle
10
72.199999999999918
20
-84.600000000000136
30
0
40
0.85000000000000853
210
0
220
0
230
1
0
CIRCLE
5
146
100
AcDbEntity
8
0
100
AcDbCircle
10
77.199999999999918
20
-84.600000000000136
30
0
40
0.85000000000000853
210
0
220
0
230
1
0
CIRCLE
5
147
100
AcDbEntity
8
0
100
AcDbCircle
10
82.199999999999918
20
-84.600000000000136
30
0
40
0.85000000000000853
210
0
220
0
230
1
0
CIRCLE
5
148
100
AcDbEntity
8
0
100
AcDbCircle
10
87.199999999999918
20
-84.600000000000136
30
0
40
0.85000000000000853
210
0
220
0
230
1
0
CIRCLE
5
149
100
AcDbEntity
8
0
100
AcDbCircle
10
97.199999999999932
20
-84.600000000000136
30
0
40
0.84999999999999076
210
0
220
0
230
1
0
CIRCLE
5
150
100
AcDbEntity
8
0
100
AcDbCircle
10
92.199999999999918
20
-84.600000000000136
30
0
40
0.85000000000000853
210
0
220
0
230
1
0
LWPOLYLINE
5
151
100
AcDbEntity
8
0
100
AcDbPolyline
90
4
70
1
43
0.0
10
12.999999999999085
20
-120.00000000000041
10
12.999999999999083
20
-5.7550000000000002e-13
10
162.99999999999795
20
-5.6843418860808015e-13
10
162.99999999999795
20
-120.00000000000041
0
CIRCLE
5
152
100
AcDbEntity
8
0
100
AcDbCircle
10
17.999999999998973
20
-115.00000000000041
30
0
40
2.5499999999999989
210
0
220
0
230
1
0
CIRCLE
5
153
100
AcDbEntity
8
0
100
AcDbCircle
10
17.999999999998973
20
-5.0000000000005764
30
0
40
2.5499999999999989
210
0
220
0
230
1
0
CIRCLE
5
154
100
AcDbEntity
8
0
100
AcDbCircle
10
157.9999999999969
20
-30.00000000000059
30
0
40
1.5875000000000126
210
0
220
0
230
1
0
CIRCLE
5
155
100
AcDbEntity
8
0
100
AcDbCircle
10
17.999999999998973
20
-30.00000000000059
30
0
40
1.5874999999999995
210
0
220
0
230
1
0
CIRCLE
5
156
100
AcDbEntity
8
0
100
AcDbCircle
10
157.9999999999969
20
-5.0000000000005764
30
0
40
2.5499999999999901
210
0
220
0
230
1
0
CIRCLE
5
157
100
AcDbEntity
8
0
100
AcDbCircle
10
157.9999999999969
20
-90.000000000000483
30
0
40
1.5875000000000126
210
0
220
0
230
1
0
CIRCLE
5
158
100
AcDbEntity
8
0
100
AcDbCircle
10
157.9999999999969
20
-115.00000000000041
30
0
40
2.5499999999999901
210
0
220
0
230
1
0
CIRCLE
5
159
100
AcDbEntity
8
0
100
AcDbCircle
10
17.999999999998973
20
-90.000000000000483
30
0
40
1.5874999999999995
210
0
220
0
230
1
0
ENDSEC
0
SECTION
2
OBJECTS
0
DICTIONARY
5
C
100
AcDbDictionary
3
ACAD_GROUP
350
D
3
ACAD_MLINESTYLE
350
17
0
DICTIONARY
5
D
100
AcDbDictionary
0
DICTIONARY
5
1A
330
C
100
AcDbDictionary
0
DICTIONARY
5
17
100
AcDbDictionary
0
ENDSEC
0
EOF
